Sans_opsz12.ufo
<glyph name="exclam" format="2">
  <advance width="311"/>
  <unicode hex="0021"/>
  <outline>
    <contour>
      <point x="196" y="694" type="line"/>
      <point x="115" y="694" type="line"/>
      <point x="123" y="173" type="line"/>
      <point x="188" y="173" type="line"/>
    </contour>
    <contour>
      <point x="115" y="0" type="line"/>
      <point x="196" y="0" type="line"/>
      <point x="196" y="81" type="line"/>
      <point x="115" y="81" type="line"/>
    </contour>
  </outline>
</glyph>
<glyph name="numbersign" format="2">
  <advance width="815"/>
  <unicode hex="0023"/>
  <outline>
    <contour>
      <point x="509" y="135" type="line"/>
      <point x="729" y="135" type="line" smooth="yes"/>
      <point x="743" y="135"/>
      <point x="761" y="135"/>
      <point x="761" y="153" type="curve" smooth="yes"/>
      <point x="761" y="172"/>
      <point x="744" y="172"/>
      <point x="729" y="172" type="curve" smooth="yes"/>
      <point x="519" y="172" type="line"/>
      <point x="560" y="327" type="line"/>
      <point x="729" y="327" type="line" smooth="yes"/>
      <point x="743" y="327"/>
      <point x="761" y="327"/>
      <point x="761" y="345" type="curve" smooth="yes"/>
      <point x="761" y="364"/>
      <point x="744" y="364"/>
      <point x="729" y="364" type="curve" smooth="yes"/>
      <point x="571" y="364" type="line"/>
      <point x="648" y="657" type="line" smooth="yes"/>
      <point x="652" y="671"/>
      <point x="652" y="674"/>
      <point x="652" y="675" type="curve" smooth="yes"/>
      <point x="652" y="686"/>
      <point x="644" y="694"/>
      <point x="633" y="694" type="curve" smooth="yes"/>
      <point x="619" y="694"/>
      <point x="616" y="681"/>
      <point x="613" y="671" type="curve" smooth="yes"/>
      <point x="532" y="364" type="line"/>
      <point x="345" y="364" type="line"/>
      <point x="422" y="657" type="line" smooth="yes"/>
      <point x="426" y="671"/>
      <point x="426" y="674"/>
      <point x="426" y="675" type="curve" smooth="yes"/>
      <point x="426" y="686"/>
      <point x="418" y="694"/>
      <point x="407" y="694" type="curve" smooth="yes"/>
      <point x="393" y="694"/>
      <point x="390" y="681"/>
      <point x="387" y="671" type="curve" smooth="yes"/>
      <point x="306" y="364" type="line"/>
      <point x="86" y="364" type="line" smooth="yes"/>
      <point x="72" y="364"/>
      <point x="54" y="364"/>
      <point x="54" y="346" type="curve" smooth="yes"/>
      <point x="54" y="327"/>
      <point x="71" y="327"/>
      <point x="86" y="327" type="curve" smooth="yes"/>
      <point x="296" y="327" type="line"/>
      <point x="255" y="172" type="line"/>
      <point x="86" y="172" type="line" smooth="yes"/>
      <point x="72" y="172"/>
      <point x="54" y="172"/>
      <point x="54" y="154" type="curve" smooth="yes"/>
      <point x="54" y="135"/>
      <point x="71" y="135"/>
      <point x="86" y="135" type="curve" smooth="yes"/>
      <point x="244" y="135" type="line"/>
      <point x="167" y="-157" type="line" smooth="yes"/>
      <point x="163" y="-171"/>
      <point x="163" y="-174"/>
      <point x="163" y="-175" type="curve" smooth="yes"/>
      <point x="163" y="-186"/>
      <point x="171" y="-194"/>
      <point x="182" y="-194" type="curve" smooth="yes"/>
      <point x="196" y="-194"/>
      <point x="199" y="-181"/>
      <point x="202" y="-171" type="curve" smooth="yes"/>
      <point x="283" y="135" type="line"/>
      <point x="470" y="135" type="line"/>
      <point x="393" y="-157" type="line" smooth="yes"/>
      <point x="389" y="-171"/>
      <point x="389" y="-174"/>
      <point x="389" y="-175" type="curve" smooth="yes"/>
      <point x="389" y="-186"/>
      <point x="397" y="-194"/>
      <point x="408" y="-194" type="curve" smooth="yes"/>
      <point x="422" y="-194"/>
      <point x="425" y="-181"/>
      <point x="428" y="-171" type="curve" smooth="yes"/>
    </contour>
    <contour>
      <point x="293" y="172" type="line"/>
      <point x="334" y="327" type="line"/>
      <point x="522" y="327" type="line"/>
      <point x="481" y="172" type="line"/>
    </contour>
  </outline>
</glyph>
<glyph name="dollar" format="2">
  <advance width="489"/>
  <unicode hex="0024"/>
  <outline>
    <contour>
      <point x="274" y="641" type="line"/>
      <point x="327" y="637"/>
      <point x="372" y="613"/>
      <point x="406" y="583" type="curve"/>
      <point x="417" y="645" type="line"/>
      <point x="417" y="649"/>
      <point x="362" y="696"/>
      <point x="274" y="703" type="curve"/>
      <point x="274" y="750" type="line"/>
      <point x="216" y="750" type="line"/>
      <point x="216" y="702" type="line"/>
      <point x="119" y="686"/>
      <point x="54" y="604"/>
      <point x="54" y="513" type="curve" smooth="yes"/>
      <point x="54" y="471"/>
      <point x="73" y="356"/>
      <point x="216" y="324" type="curve"/>
      <point x="216" y="54" type="line"/>
      <point x="135" y="61"/>
      <point x="81" y="104"/>
      <point x="56" y="127" type="curve"/>
      <point x="44" y="59" type="line"/>
      <point x="87" y="27"/>
      <point x="142" y="-2"/>
      <point x="216" y="-9" type="curve"/>
      <point x="216" y="-56" type="line"/>
      <point x="274" y="-56" type="line"/>
      <point x="274" y="-7" type="line"/>
      <point x="365" y="8"/>
      <point x="435" y="92"/>
      <point x="435" y="195" type="curve" smooth="yes"/>
      <point x="435" y="263"/>
      <point x="399" y="369"/>
      <point x="274" y="398" type="curve"/>
    </contour>
    <contour>
      <point x="216" y="413" type="line"/>
      <point x="150" y="429"/>
      <point x="124" y="483"/>
      <point x="124" y="526" type="curve" smooth="yes"/>
      <point x="124" y="572"/>
      <point x="154" y="623"/>
      <point x="216" y="639" type="curve"/>
    </contour>
    <contour>
      <point x="274" y="309" type="line"/>
      <point x="335" y="292"/>
      <point x="365" y="235"/>
      <point x="365" y="183" type="curve" smooth="yes"/>
      <point x="365" y="122"/>
      <point x="328" y="71"/>
      <point x="274" y="56" type="curve"/>
    </contour>
  </outline>
</glyph>
<glyph name="ampersand" format="2">
  <advance width="740"/>
  <unicode hex="0026"/>
  <outline>
    <contour>
      <point x="591" y="406" type="line"/>
      <point x="557" y="281"/>
      <point x="501" y="187"/>
      <point x="426" y="122" type="curve"/>
      <point x="414" y="135"/>
      <point x="312" y="256"/>
      <point x="273" y="344" type="curve"/>
      <point x="370" y="430"/>
      <point x="423" y="496"/>
      <point x="423" y="560" type="curve" smooth="yes"/>
      <point x="423" y="633"/>
      <point x="376" y="715"/>
      <point x="294" y="715" type="curve" smooth="yes"/>
      <point x="211" y="715"/>
      <point x="158" y="626"/>
      <point x="158" y="518" type="curve" smooth="yes"/>
      <point x="158" y="431"/>
      <point x="188" y="354"/>
      <point x="190" y="349" type="curve"/>
      <point x="110" y="277" type="line" smooth="yes"/>
      <point x="82" y="252"/>
      <point x="41" y="215"/>
      <point x="41" y="145" type="curve" smooth="yes"/>
      <point x="41" y="58"/>
      <point x="114" y="-21"/>
      <point x="221" y="-21" type="curve" smooth="yes"/>
      <point x="252" y="-21"/>
      <point x="330" y="-17"/>
      <point x="415" y="37" type="curve"/>
      <point x="484" y="-16"/>
      <point x="539" y="-21"/>
      <point x="574" y="-21" type="curve" smooth="yes"/>
      <point x="584" y="-21"/>
      <point x="627" y="-21"/>
      <point x="686" y="-5" type="curve"/>
      <point x="686" y="61" type="line"/>
      <point x="647" y="47"/>
      <point x="604" y="41"/>
      <point x="575" y="41" type="curve" smooth="yes"/>
      <point x="561" y="41"/>
      <point x="521" y="41"/>
      <point x="472" y="80" type="curve"/>
      <point x="579" y="181"/>
      <point x="629" y="298"/>
      <point x="652" y="389" type="curve"/>
    </contour>
    <contour>
      <point x="249" y="403" type="curve"/>
      <point x="229" y="462"/>
      <point x="223" y="519"/>
      <point x="223" y="552" type="curve" smooth="yes"/>
      <point x="223" y="625"/>
      <point x="261" y="655"/>
      <point x="294" y="655" type="curve" smooth="yes"/>
      <point x="345" y="655"/>
      <point x="353" y="586"/>
      <point x="353" y="561" type="curve" smooth="yes"/>
      <point x="353" y="504"/>
      <point x="302" y="455"/>
    </contour>
    <contour>
      <point x="215" y="291" type="curve"/>
      <point x="267" y="195"/>
      <point x="327" y="123"/>
      <point x="367" y="80" type="curve"/>
      <point x="337" y="62"/>
      <point x="281" y="41"/>
      <point x="222" y="41" type="curve" smooth="yes"/>
      <point x="150" y="41"/>
      <point x="117" y="102"/>
      <point x="117" y="151" type="curve" smooth="yes"/>
      <point x="117.0" y="188.71432"/>
      <point x="128.33904602249999" y="211.0075374094"/>
      <point x="158.04272480629123" y="240.48371390952832" type="curve" smooth="yes"/>
      <point x="172.4444683632" y="254.77515363600003"/>
      <point x="191.16331" y="270.75514000000004"/>
    </contour>
  </outline>
</glyph>
<glyph name="parenleft" format="2">
  <advance width="380"/>
  <unicode hex="0028"/>
  <outline>
    <contour>
      <point x="266" y="750" type="line"/>
      <point x="116" y="616"/>
      <point x="78" y="413"/>
      <point x="78" y="250" type="curve" smooth="yes"/>
      <point x="78" y="74"/>
      <point x="121" y="-122"/>
      <point x="266" y="-251" type="curve"/>
      <point x="326" y="-251" type="line"/>
      <point x="287" y="-215"/>
      <point x="226" y="-137"/>
      <point x="191" y="-24" type="curve" smooth="yes"/>
      <point x="164" y="65"/>
      <point x="154" y="158"/>
      <point x="154" y="249" type="curve" smooth="yes"/>
      <point x="154" y="544"/>
      <point x="259" y="688"/>
      <point x="326" y="750" type="curve"/>
    </contour>
  </outline>
</glyph>
<glyph name="plus" format="2">
  <advance width="761"/>
  <unicode hex="002B"/>
  <outline>
    <contour>
      <point x="399" y="231" type="line"/>
      <point x="675" y="231" type="line" smooth="yes"/>
      <point x="689" y="231"/>
      <point x="707" y="231"/>
      <point x="707" y="249" type="curve" smooth="yes"/>
      <point x="707" y="268"/>
      <point x="690" y="268"/>
      <point x="675" y="268" type="curve" smooth="yes"/>
      <point x="399" y="268" type="line"/>
      <point x="399" y="544" type="line" smooth="yes"/>
      <point x="399" y="558"/>
      <point x="399" y="576"/>
      <point x="381" y="576" type="curve" smooth="yes"/>
      <point x="362" y="576"/>
      <point x="362" y="559"/>
      <point x="362" y="544" type="curve" smooth="yes"/>
      <point x="362" y="268" type="line"/>
      <point x="86" y="268" type="line" smooth="yes"/>
      <point x="72" y="268"/>
      <point x="54" y="268"/>
      <point x="54" y="250" type="curve" smooth="yes"/>
      <point x="54" y="231"/>
      <point x="71" y="231"/>
      <point x="86" y="231" type="curve" smooth="yes"/>
      <point x="362" y="231" type="line"/>
      <point x="362" y="-45" type="line" smooth="yes"/>
      <point x="362" y="-59"/>
      <point x="362" y="-77"/>
      <point x="380" y="-77" type="curve" smooth="yes"/>
      <point x="399" y="-77"/>
      <point x="399" y="-60"/>
      <point x="399" y="-45" type="curve" smooth="yes"/>
    </contour>
  </outline>
</glyph>
<glyph name="hyphen" format="2">
  <advance width="326"/>
  <unicode hex="002D"/>
  <outline>
    <contour>
      <point x="271" y="193" type="line"/>
      <point x="271" y="251" type="line"/>
      <point x="11" y="251" type="line"/>
      <point x="11" y="193" type="line"/>
    </contour>
  </outline>
</glyph>
<glyph name="period" format="2">
  <advance width="271"/>
  <unicode hex="002E"/>
  <outline>
    <contour>
      <point x="176" y="81" type="line"/>
      <point x="95" y="81" type="line"/>
      <point x="95" y="0" type="line"/>
      <point x="176" y="0" type="line"/>
    </contour>
  </outline>
</glyph>
<glyph name="slash" format="2">
  <advance width="489"/>
  <unicode hex="002F"/>
  <outline>
    <contour>
      <point x="430" y="714" type="line" smooth="yes"/>
      <point x="435" y="727"/>
      <point x="435" y="729"/>
      <point x="435" y="731" type="curve" smooth="yes"/>
      <point x="435" y="744"/>
      <point x="425" y="750"/>
      <point x="417" y="750" type="curve" smooth="yes"/>
      <point x="404" y="750"/>
      <point x="401" y="741"/>
      <point x="396" y="728" type="curve" smooth="yes"/>
      <point x="59" y="-214" type="line" smooth="yes"/>
      <point x="54" y="-227"/>
      <point x="54" y="-229"/>
      <point x="54" y="-231" type="curve" smooth="yes"/>
      <point x="54" y="-242"/>
      <point x="62" y="-250"/>
      <point x="73" y="-250" type="curve" smooth="yes"/>
      <point x="86" y="-250"/>
      <point x="89" y="-240"/>
      <point x="93" y="-229" type="curve" smooth="yes"/>
    </contour>
  </outline>
</glyph>
<glyph name="zero" format="2">
  <advance width="489"/>
  <unicode hex="0030"/>
  <outline>
    <contour>
      <point x="245" y="38" type="curve" smooth="yes"/>
      <point x="187.00064" y="38.0"/>
      <point x="155.2819500032" y="80.09013555199999"/>
      <point x="137.93563281775002" y="134.87179796362034" type="curve" smooth="yes"/>
      <point x="117.0" y="200.9889314816"/>
      <point x="117.0" y="285.59328"/>
      <point x="117" y="337" type="curve" smooth="yes"/>
      <point x="117" y="402"/>
      <point x="117" y="464"/>
      <point x="135" y="521" type="curve" smooth="yes"/>
      <point x="159" y="592"/>
      <point x="203" y="616"/>
      <point x="244" y="616" type="curve" smooth="yes"/>
      <point x="304.99968" y="616.0"/>
      <point x="336.92935249920004" y="573.7576453504"/>
      <point x="353.64262027218126" y="519.5776921205965" type="curve" smooth="yes"/>
      <point x="372.0" y="460.06796675839996"/>
      <point x="372.0" y="386.15648"/>
      <point x="372" y="338" type="curve" smooth="yes"/>
      <point x="372" y="274"/>
      <point x="372" y="208"/>
      <point x="354" y="146" type="curve" smooth="yes"/>
      <point x="327" y="50"/>
      <point x="271" y="38"/>
    </contour>
    <contour>
      <point x="244" y="-21" type="curve" smooth="yes"/>
      <point x="310" y="-21"/>
      <point x="373" y="15"/>
      <point x="407" y="84" type="curve" smooth="yes"/>
      <point x="441" y="155"/>
      <point x="448" y="228"/>
      <point x="448" y="326" type="curve" smooth="yes"/>
      <point x="448" y="393"/>
      <point x="445" y="470"/>
      <point x="419" y="541" type="curve" smooth="yes"/>
      <point x="376" y="653"/>
      <point x="298" y="676"/>
      <point x="245" y="676" type="curve" smooth="yes"/>
      <point x="180" y="676"/>
      <point x="117" y="643"/>
      <point x="80" y="564" type="curve" smooth="yes"/>
      <point x="47" y="493"/>
      <point x="41" y="412"/>
      <point x="41" y="326" type="curve" smooth="yes"/>
      <point x="41" y="217"/>
      <point x="50" y="155"/>
      <point x="82" y="85" type="curve" smooth="yes"/>
      <point x="112" y="19"/>
      <point x="176" y="-21"/>
    </contour>
  </outline>
</glyph>
<glyph name="four" format="2">
  <advance width="489"/>
  <unicode hex="0034"/>
  <outline>
    <contour>
      <point x="365" y="172" type="line"/>
      <point x="462" y="172" type="line"/>
      <point x="462" y="232" type="line"/>
      <point x="365" y="232" type="line"/>
      <point x="365" y="655" type="line"/>
      <point x="275" y="655" type="line"/>
      <point x="27" y="232" type="line"/>
      <point x="27" y="172" type="line"/>
      <point x="286" y="172" type="line"/>
      <point x="286" y="0" type="line"/>
      <point x="365" y="0" type="line"/>
    </contour>
    <contour>
      <point x="104" y="232" type="line"/>
      <point x="133" y="283"/>
      <point x="172" y="347"/>
      <point x="214" y="427" type="curve" smooth="yes"/>
      <point x="226" y="450"/>
      <point x="291" y="573"/>
      <point x="291" y="610" type="curve"/>
      <point x="291" y="232" type="line"/>
    </contour>
  </outline>
</glyph>
<glyph name="six" format="2">
  <advance width="489"/>
  <unicode hex="0036"/>
  <outline>
    <contour>
      <point x="407" y="656" type="line"/>
      <point x="366" y="671"/>
      <point x="337" y="676"/>
      <point x="302" y="676" type="curve" smooth="yes"/>
      <point x="167" y="676"/>
      <point x="42" y="537"/>
      <point x="42" y="322" type="curve" smooth="yes"/>
      <point x="42" y="35"/>
      <point x="167" y="-21"/>
      <point x="246" y="-21" type="curve" smooth="yes"/>
      <point x="306" y="-21"/>
      <point x="349" y="3"/>
      <point x="388" y="49" type="curve" smooth="yes"/>
      <point x="433" y="103"/>
      <point x="447" y="150"/>
      <point x="447" y="222" type="curve" smooth="yes"/>
      <point x="447" y="287"/>
      <point x="430" y="348"/>
      <point x="401" y="391" type="curve" smooth="yes"/>
      <point x="373" y="433"/>
      <point x="335" y="459"/>
      <point x="290" y="459" type="curve" smooth="yes"/>
      <point x="216" y="459"/>
      <point x="160" y="423"/>
      <point x="123" y="378" type="curve"/>
      <point x="134" y="526"/>
      <point x="205" y="619"/>
      <point x="304" y="619" type="curve" smooth="yes"/>
      <point x="347" y="619"/>
      <point x="378" y="609"/>
      <point x="407" y="598" type="curve"/>
    </contour>
    <contour>
      <point x="124" y="218" type="curve"/>
      <point x="124" y="226"/>
      <point x="124" y="239"/>
      <point x="125" y="246" type="curve"/>
      <point x="125" y="316"/>
      <point x="165" y="399"/>
      <point x="251" y="399" type="curve" smooth="yes"/>
      <point x="284" y="399"/>
      <point x="316" y="390"/>
      <point x="345" y="340" type="curve" smooth="yes"/>
      <point x="367" y="300"/>
      <point x="368" y="260"/>
      <point x="368" y="221" type="curve" smooth="yes"/>
      <point x="368" y="180"/>
      <point x="368" y="137"/>
      <point x="338" y="92" type="curve" smooth="yes"/>
      <point x="320" y="65"/>
      <point x="295" y="39"/>
      <point x="246" y="39" type="curve" smooth="yes"/>
      <point x="142" y="39"/>
      <point x="127" y="186"/>
    </contour>
  </outline>
</glyph>
<glyph name="semicolon" format="2">
  <advance width="271"/>
  <unicode hex="003B"/>
  <outline>
    <contour>
      <point x="176" y="444" type="line"/>
      <point x="95" y="444" type="line"/>
      <point x="95" y="363" type="line"/>
      <point x="176" y="363" type="line"/>
    </contour>
    <contour>
      <point x="95" y="-125" type="line"/>
      <point x="135" y="-125" type="line"/>
      <point x="176" y="1" type="line"/>
      <point x="176" y="81" type="line"/>
      <point x="95" y="81" type="line"/>
      <point x="95" y="0" type="line"/>
      <point x="120" y="0" type="line"/>
    </contour>
  </outline>
</glyph>
<glyph name="equal" format="2">
  <advance width="761"/>
  <unicode hex="003D"/>
  <outline>
    <contour>
      <point x="675" y="327" type="line" smooth="yes"/>
      <point x="689" y="327"/>
      <point x="707" y="327"/>
      <point x="707" y="345" type="curve" smooth="yes"/>
      <point x="707" y="364"/>
      <point x="690" y="364"/>
      <point x="675" y="364" type="curve" smooth="yes"/>
      <point x="86" y="364" type="line" smooth="yes"/>
      <point x="72" y="364"/>
      <point x="54" y="364"/>
      <point x="54" y="346" type="curve" smooth="yes"/>
      <point x="54" y="327"/>
      <point x="71" y="327"/>
      <point x="86" y="327" type="curve" smooth="yes"/>
    </contour>
    <contour>
      <point x="675" y="135" type="line" smooth="yes"/>
      <point x="689" y="135"/>
      <point x="707" y="135"/>
      <point x="707" y="153" type="curve" smooth="yes"/>
      <point x="707" y="172"/>
      <point x="690" y="172"/>
      <point x="675" y="172" type="curve" smooth="yes"/>
      <point x="86" y="172" type="line" smooth="yes"/>
      <point x="72" y="172"/>
      <point x="54" y="172"/>
      <point x="54" y="154" type="curve" smooth="yes"/>
      <point x="54" y="135"/>
      <point x="71" y="135"/>
      <point x="86" y="135" type="curve" smooth="yes"/>
    </contour>
  </outline>
</glyph>
<glyph name="at" format="2">
  <advance width="652"/>
  <unicode hex="0040"/>
  <outline>
    <contour>
      <point x="551" y="85" type="line" smooth="yes"/>
      <point x="536" y="85"/>
      <point x="534" y="85"/>
      <point x="526" y="81" type="curve"/>
      <point x="505" y="72"/>
      <point x="452" y="50"/>
      <point x="383" y="50" type="curve" smooth="yes"/>
      <point x="239" y="50"/>
      <point x="129" y="184"/>
      <point x="129" y="347" type="curve" smooth="yes"/>
      <point x="129" y="522"/>
      <point x="252" y="644"/>
      <point x="378" y="644" type="curve" smooth="yes"/>
      <point x="428" y="644"/>
      <point x="473" y="618"/>
      <point x="498" y="549" type="curve"/>
      <point x="496" y="550"/>
      <point x="461" y="573"/>
      <point x="416" y="573" type="curve" smooth="yes"/>
      <point x="320" y="573"/>
      <point x="234" y="477"/>
      <point x="234" y="347" type="curve" smooth="yes"/>
      <point x="234" y="217"/>
      <point x="320" y="121"/>
      <point x="416" y="121" type="curve" smooth="yes"/>
      <point x="482" y="121"/>
      <point x="598" y="178"/>
      <point x="598" y="362" type="curve" smooth="yes"/>
      <point x="598" y="448"/>
      <point x="597" y="704"/>
      <point x="379" y="704" type="curve" smooth="yes"/>
      <point x="207" y="704"/>
      <point x="54" y="551"/>
      <point x="54" y="347" type="curve" smooth="yes"/>
      <point x="54" y="145"/>
      <point x="205" y="-10"/>
      <point x="380" y="-10" type="curve" smooth="yes"/>
      <point x="480" y="-10"/>
      <point x="557" y="39"/>
      <point x="598" y="85" type="curve"/>
    </contour>
    <contour>
      <point x="416" y="181" type="curve" smooth="yes"/>
      <point x="359" y="181"/>
      <point x="309" y="251"/>
      <point x="309" y="347" type="curve" smooth="yes"/>
      <point x="309" y="442"/>
      <point x="359" y="513"/>
      <point x="416" y="513" type="curve" smooth="yes"/>
      <point x="473" y="513"/>
      <point x="523" y="443"/>
      <point x="523" y="347" type="curve" smooth="yes"/>
      <point x="523" y="252"/>
      <point x="473" y="181"/>
    </contour>
  </outline>
</glyph>
<glyph name="A" format="2">
  <advance width="647"/>
  <unicode hex="0041"/>
  <outline>
    <contour>
      <point x="367" y="694" type="line"/>
      <point x="279" y="694" type="line"/>
      <point x="27" y="0" type="line"/>
      <point x="101" y="0" type="line"/>
      <point x="174" y="203" type="line"/>
      <point x="456" y="203" type="line"/>
      <point x="530" y="0" type="line"/>
      <point x="619" y="0" type="line"/>
    </contour>
    <contour>
      <point x="315" y="622" type="line"/>
      <point x="435" y="259" type="line"/>
      <point x="196" y="259" type="line"/>
    </contour>
  </outline>
</glyph>
<glyph name="B" format="2">
  <advance width="649"/>
  <unicode hex="0042"/>
  <outline>
    <contour>
      <point x="93" y="694" type="line"/>
      <point x="93" y="0" type="line"/>
      <point x="351" y="0" type="line" smooth="yes"/>
      <point x="492" y="0"/>
      <point x="595" y="90"/>
      <point x="595" y="188" type="curve" smooth="yes"/>
      <point x="595" y="276"/>
      <point x="508" y="347"/>
      <point x="405" y="363" type="curve"/>
      <point x="522" y="395"/>
      <point x="567" y="462"/>
      <point x="567" y="520" type="curve" smooth="yes"/>
      <point x="567" y="610"/>
      <point x="465" y="694"/>
      <point x="324" y="694" type="curve" smooth="yes"/>
    </contour>
    <contour>
      <point x="174" y="391" type="line"/>
      <point x="174" y="638" type="line"/>
      <point x="297" y="638" type="line" smooth="yes"/>
      <point x="404" y="638"/>
      <point x="490" y="585"/>
      <point x="490" y="519" type="curve" smooth="yes"/>
      <point x="490" y="449"/>
      <point x="404" y="391"/>
      <point x="298" y="391" type="curve" smooth="yes"/>
    </contour>
    <contour>
      <point x="174" y="56" type="line"/>
      <point x="174" y="331" type="line"/>
      <point x="307" y="331" type="line" smooth="yes"/>
      <point x="436" y="331"/>
      <point x="516" y="259"/>
      <point x="516" y="189" type="curve" smooth="yes"/>
      <point x="516" y="119"/>
      <point x="435" y="56"/>
      <point x="323" y="56" type="curve" smooth="yes"/>
    </contour>
  </outline>
</glyph>
<glyph name="C" format="2">
  <advance width="626"/>
  <unicode hex="0043"/>
  <outline>
    <contour>
      <point x="570" y="115" type="line"/>
      <point x="509" y="70"/>
      <point x="467" y="53"/>
      <point x="380" y="53" type="curve" smooth="yes"/>
      <point x="250" y="53"/>
      <point x="151" y="188"/>
      <point x="151" y="349" type="curve" smooth="yes"/>
      <point x="151" y="484"/>
      <point x="232" y="643"/>
      <point x="384" y="643" type="curve" smooth="yes"/>
      <point x="450" y="643"/>
      <point x="500" y="623"/>
      <point x="550" y="589" type="curve"/>
      <point x="565" y="671" type="line"/>
      <point x="500" y="696"/>
      <point x="451" y="705"/>
      <point x="382" y="705" type="curve" smooth="yes"/>
      <point x="212" y="705"/>
      <point x="66" y="555"/>
      <point x="66" y="348" type="curve" smooth="yes"/>
      <point x="66" y="129"/>
      <point x="227" y="-9"/>
      <point x="373" y="-9" type="curve" smooth="yes"/>
      <point x="473" y="-9"/>
      <point x="495" y="-3"/>
      <point x="576" y="46" type="curve"/>
    </contour>
  </outline>
</glyph>
<glyph name="E" format="2">
  <advance width="583"/>
  <unicode hex="0045"/>
  <outline>
    <contour>
      <point x="500" y="330" type="line"/>
      <point x="500" y="390" type="line"/>
      <point x="176" y="390" type="line"/>
      <point x="176" y="630" type="line"/>
      <point x="312" y="630" type="line" smooth="yes"/>
      <point x="324" y="630"/>
      <point x="336" y="629"/>
      <point x="348" y="629" type="curve" smooth="yes"/>
      <point x="528" y="629" type="line"/>
      <point x="528" y="692" type="line"/>
      <point x="90" y="692" type="line"/>
      <point x="90" y="0" type="line"/>
      <point x="541" y="0" type="line"/>
      <point x="541" y="68" type="line"/>
      <point x="410" y="68" type="line" smooth="yes"/>
      <point x="398" y="68"/>
      <point x="386" y="67"/>
      <point x="374" y="67" type="curve" smooth="yes"/>
      <point x="176" y="67" type="line"/>
      <point x="176" y="330" type="line"/>
    </contour>
  </outline>
</glyph>
<glyph name="F" format="2">
  <advance width="556"/>
  <unicode hex="0046"/>
  <outline>
    <contour>
      <point x="90" y="0" type="line"/>
      <point x="176" y="0" type="line"/>
      <point x="176" y="316" type="line"/>
      <point x="473" y="316" type="line"/>
      <point x="473" y="376" type="line"/>
      <point x="176" y="376" type="line"/>
      <point x="176" y="629" type="line"/>
      <point x="514" y="629" type="line"/>
      <point x="514" y="692" type="line"/>
      <point x="90" y="692" type="line"/>
    </contour>
  </outline>
</glyph>
<glyph name="G" format="2">
  <advance width="653"/>
  <unicode hex="0047"/>
  <outline>
    <contour>
      <point x="587" y="303" type="line"/>
      <point x="380" y="303" type="line"/>
      <point x="380" y="242" type="line"/>
      <point x="510" y="242" type="line"/>
      <point x="510" y="74" type="line"/>
      <point x="469" y="64"/>
      <point x="428" y="54"/>
      <point x="379" y="54" type="curve" smooth="yes"/>
      <point x="235" y="54"/>
      <point x="151" y="209"/>
      <point x="151" y="348" type="curve" smooth="yes"/>
      <point x="151" y="482"/>
      <point x="232" y="643"/>
      <point x="384" y="643" type="curve" smooth="yes"/>
      <point x="460" y="643"/>
      <point x="509" y="620"/>
      <point x="564" y="575" type="curve"/>
      <point x="579" y="657" type="line"/>
      <point x="512" y="691"/>
      <point x="457" y="706"/>
      <point x="381" y="706" type="curve" smooth="yes"/>
      <point x="190" y="706"/>
      <point x="65" y="526"/>
      <point x="65" y="348" type="curve" smooth="yes"/>
      <point x="65" y="168"/>
      <point x="190" y="-9"/>
      <point x="383" y="-9" type="curve" smooth="yes"/>
      <point x="453" y="-9"/>
      <point x="524" y="7"/>
      <point x="587" y="39" type="curve"/>
    </contour>
  </outline>
</glyph>
<glyph name="I" format="2">
  <advance width="266"/>
  <unicode hex="0049"/>
  <outline>
    <contour>
      <point x="176" y="694" type="line"/>
      <point x="90" y="694" type="line"/>
      <point x="90" y="0" type="line"/>
      <point x="176" y="0" type="line"/>
    </contour>
  </outline>
</glyph>
<glyph name="K" format="2">
  <advance width="674"/>
  <unicode hex="004B"/>
  <outline>
    <contour>
      <point x="358" y="419" type="line"/>
      <point x="619" y="694" type="line"/>
      <point x="525" y="694" type="line"/>
      <point x="175" y="325" type="line"/>
      <point x="175" y="694" type="line"/>
      <point x="91" y="694" type="line"/>
      <point x="91" y="0" type="line"/>
      <point x="175" y="0" type="line"/>
      <point x="175" y="226" type="line"/>
      <point x="304" y="362" type="line"/>
      <point x="540" y="0" type="line"/>
      <point x="632" y="0" type="line"/>
    </contour>
  </outline>
</glyph>
<glyph name="L" format="2">
  <advance width="528"/>
  <unicode hex="004C"/>
  <outline>
    <contour>
      <point x="176" y="694" type="line"/>
      <point x="90" y="694" type="line"/>
      <point x="90" y="0" type="line"/>
      <point x="487" y="0" type="line"/>
      <point x="487" y="64" type="line"/>
      <point x="399" y="62"/>
      <point x="312" y="62"/>
      <point x="224" y="62" type="curve" smooth="yes"/>
      <point x="176" y="62" type="line"/>
    </contour>
  </outline>
</glyph>
<glyph name="S" format="2">
  <advance width="543"/>
  <unicode hex="0053"/>
  <outline>
    <contour>
      <point x="44" y="48" type="line"/>
      <point x="135" y="-12"/>
      <point x="223" y="-21"/>
      <point x="269" y="-21" type="curve" smooth="yes"/>
      <point x="398" y="-21"/>
      <point x="489" y="78"/>
      <point x="489" y="189" type="curve" smooth="yes"/>
      <point x="489" y="253"/>
      <point x="458" y="301"/>
      <point x="436" y="326" type="curve" smooth="yes"/>
      <point x="390" y="375"/>
      <point x="353" y="385"/>
      <point x="286" y="402" type="curve" smooth="yes"/>
      <point x="218" y="419"/>
      <point x="193" y="425"/>
      <point x="171" y="446" type="curve"/>
      <point x="158" y="460"/>
      <point x="131" y="485"/>
      <point x="131" y="530" type="curve" smooth="yes"/>
      <point x="131" y="591"/>
      <point x="186" y="650"/>
      <point x="274" y="650" type="curve" smooth="yes"/>
      <point x="359" y="650"/>
      <point x="404" y="617"/>
      <point x="440" y="585" type="curve"/>
      <point x="455" y="666" type="line"/>
      <point x="414" y="688"/>
      <point x="364" y="715"/>
      <point x="275" y="715" type="curve" smooth="yes"/>
      <point x="141" y="715"/>
      <point x="54" y="619"/>
      <point x="54" y="519" type="curve" smooth="yes"/>
      <point x="54" y="448"/>
      <point x="97" y="402"/>
      <point x="102" y="397" type="curve" smooth="yes"/>
      <point x="151" y="347"/>
      <point x="185" y="338"/>
      <point x="249" y="322" type="curve" smooth="yes"/>
      <point x="334" y="301"/>
      <point x="348" y="297"/>
      <point x="380" y="264" type="curve" smooth="yes"/>
      <point x="397" y="246"/>
      <point x="412" y="214"/>
      <point x="412" y="179" type="curve" smooth="yes"/>
      <point x="412" y="110"/>
      <point x="355" y="46"/>
      <point x="269" y="46" type="curve" smooth="yes"/>
      <point x="196" y="46"/>
      <point x="118" y="75"/>
      <point x="59" y="129" type="curve"/>
    </contour>
  </outline>
</glyph>
<glyph name="T" format="2">
  <advance width="667"/>
  <unicode hex="0054"/>
  <outline>
    <contour>
      <point x="291" y="0" type="line"/>
      <point x="377" y="0" type="line"/>
      <point x="377" y="626" type="line"/>
      <point x="632" y="626" type="line"/>
      <point x="632" y="689" type="line"/>
      <point x="35" y="689" type="line"/>
      <point x="35" y="626" type="line"/>
      <point x="291" y="626" type="line"/>
    </contour>
  </outline>
</glyph>
<glyph name="U" format="2">
  <advance width="666"/>
  <unicode hex="0055"/>
  <outline>
    <contour>
      <point x="576" y="694" type="line"/>
      <point x="500" y="694" type="line"/>
      <point x="500" y="232" type="line" smooth="yes"/>
      <point x="500" y="98"/>
      <point x="416" y="35"/>
      <point x="336" y="35" type="curve" smooth="yes"/>
      <point x="257" y="35"/>
      <point x="176" y="97"/>
      <point x="176" y="232" type="curve" smooth="yes"/>
      <point x="176" y="694" type="line"/>
      <point x="90" y="694" type="line"/>
      <point x="90" y="233" type="line" smooth="yes"/>
      <point x="90" y="86"/>
      <point x="205" y="-21"/>
      <point x="335" y="-21" type="curve" smooth="yes"/>
      <point x="465" y="-21"/>
      <point x="576" y="88"/>
      <point x="576" y="233" type="curve" smooth="yes"/>
    </contour>
  </outline>
</glyph>
<glyph name="V" format="2">
  <advance width="647"/>
  <unicode hex="0056"/>
  <outline>
    <contour>
      <point x="632" y="694" type="line"/>
      <point x="556" y="694" type="line"/>
      <point x="431" y="362" type="line" smooth="yes"/>
      <point x="391" y="255"/>
      <point x="341" y="123"/>
      <point x="330" y="74" type="curve"/>
      <point x="329" y="74" type="line"/>
      <point x="320" y="117"/>
      <point x="288" y="201"/>
      <point x="264" y="265" type="curve" smooth="yes"/>
      <point x="104" y="694" type="line"/>
      <point x="14" y="694" type="line"/>
      <point x="278" y="0" type="line"/>
      <point x="368" y="0" type="line"/>
    </contour>
  </outline>
</glyph>
<glyph name="W" format="2">
  <advance width="918"/>
  <unicode hex="0057"/>
  <outline>
    <contour>
      <point x="904" y="694" type="line"/>
      <point x="831" y="694" type="line"/>
      <point x="700" y="218" type="line" smooth="yes"/>
      <point x="687" y="170"/>
      <point x="672" y="112"/>
      <point x="668" y="76" type="curve"/>
      <point x="667" y="76" type="line"/>
      <point x="662" y="118"/>
      <point x="640" y="204"/>
      <point x="623" y="264" type="curve" smooth="yes"/>
      <point x="505" y="694" type="line"/>
      <point x="420" y="694" type="line"/>
      <point x="334" y="384" type="line" smooth="yes"/>
      <point x="327" y="360"/>
      <point x="267" y="142"/>
      <point x="260" y="77" type="curve"/>
      <point x="259" y="77" type="line"/>
      <point x="255" y="116"/>
      <point x="230" y="213"/>
      <point x="226" y="230" type="curve" smooth="yes"/>
      <point x="99" y="694" type="line"/>
      <point x="14" y="694" type="line"/>
      <point x="210" y="0" type="line"/>
      <point x="293" y="0" type="line"/>
      <point x="387" y="340" type="line" smooth="yes"/>
      <point x="412" y="429"/>
      <point x="450" y="566"/>
      <point x="456" y="619" type="curve"/>
      <point x="457" y="619" type="line"/>
      <point x="457" y="618"/>
      <point x="464" y="567"/>
      <point x="511" y="396" type="curve" smooth="yes"/>
      <point x="620" y="0" type="line"/>
      <point x="708" y="0" type="line"/>
    </contour>
  </outline>
</glyph>
<glyph name="X" format="2">
  <advance width="647"/>
  <unicode hex="0058"/>
  <outline>
    <contour>
      <point x="358" y="366" type="line"/>
      <point x="592" y="694" type="line"/>
      <point x="499" y="694" type="line"/>
      <point x="316" y="432" type="line"/>
      <point x="128" y="694" type="line"/>
      <point x="27" y="694" type="line"/>
      <point x="274" y="366" type="line"/>
      <point x="14" y="0" type="line"/>
      <point x="106" y="0" type="line"/>
      <point x="316" y="306" type="line"/>
      <point x="532" y="0" type="line"/>
      <point x="632" y="0" type="line"/>
    </contour>
  </outline>
</glyph>
<glyph name="Y" format="2">
  <advance width="647"/>
  <unicode hex="0059"/>
  <outline>
    <contour>
      <point x="643" y="694" type="line"/>
      <point x="557" y="694" type="line"/>
      <point x="385" y="435" type="line" smooth="yes"/>
      <point x="366" y="407"/>
      <point x="346" y="376"/>
      <point x="330" y="349" type="curve"/>
      <point x="327" y="354"/>
      <point x="316" y="374"/>
      <point x="273" y="439" type="curve" smooth="yes"/>
      <point x="103" y="694" type="line"/>
      <point x="3" y="694" type="line"/>
      <point x="281" y="278" type="line"/>
      <point x="281" y="0" type="line"/>
      <point x="365" y="0" type="line"/>
      <point x="365" y="278" type="line"/>
    </contour>
  </outline>
</glyph>
<glyph name="Z" format="2">
  <advance width="598"/>
  <unicode hex="005A"/>
  <outline>
    <contour>
      <point x="543" y="654" type="line"/>
      <point x="543" y="694" type="line"/>
      <point x="68" y="694" type="line"/>
      <point x="68" y="633" type="line"/>
      <point x="264" y="633" type="line" smooth="yes"/>
      <point x="276" y="633"/>
      <point x="288" y="633"/>
      <point x="434" y="634" type="curve"/>
      <point x="54" y="41" type="line"/>
      <point x="54" y="0" type="line"/>
      <point x="548" y="0" type="line"/>
      <point x="548" y="64" type="line"/>
      <point x="454" y="64" type="line" smooth="yes"/>
      <point x="368" y="64"/>
      <point x="281.0" y="62.0"/>
      <point x="163" y="62" type="curve"/>
    </contour>
  </outline>
</glyph>
<glyph name="bracketleft" format="2">
  <advance width="282"/>
  <unicode hex="005B"/>
  <outline>
    <contour>
      <point x="261" y="-250" type="line"/>
      <point x="261" y="-190" type="line"/>
      <point x="170" y="-190" type="line"/>
      <point x="170" y="690" type="line"/>
      <point x="261" y="690" type="line"/>
      <point x="261" y="750" type="line"/>
      <point x="99" y="750" type="line"/>
      <point x="99" y="-250" type="line"/>
    </contour>
  </outline>
</glyph>
<glyph name="bracketright" format="2">
  <advance width="282"/>
  <unicode hex="005D"/>
  <outline>
    <contour>
      <point x="183" y="750" type="line"/>
      <point x="21" y="750" type="line"/>
      <point x="21" y="690" type="line"/>
      <point x="112" y="690" type="line"/>
      <point x="112" y="-190" type="line"/>
      <point x="21" y="-190" type="line"/>
      <point x="21" y="-250" type="line"/>
      <point x="183" y="-250" type="line"/>
    </contour>
  </outline>
</glyph>
<glyph name="b" format="2">
  <advance width="502"/>
  <unicode hex="0062"/>
  <outline>
    <contour>
      <point x="152" y="694" type="line"/>
      <point x="78" y="694" type="line"/>
      <point x="78" y="0" type="line"/>
      <point x="154" y="0" type="line"/>
      <point x="154" y="45" type="line"/>
      <point x="200" y="1"/>
      <point x="249" y="-10"/>
      <point x="284" y="-10" type="curve" smooth="yes"/>
      <point x="379" y="-10"/>
      <point x="466" y="87"/>
      <point x="466" y="223" type="curve" smooth="yes"/>
      <point x="466" y="346"/>
      <point x="400" y="454"/>
      <point x="307" y="454" type="curve" smooth="yes"/>
      <point x="278" y="454"/>
      <point x="214" y="448"/>
      <point x="152" y="398" type="curve"/>
    </contour>
    <contour>
      <point x="154" y="337" type="line"/>
      <point x="172" y="365"/>
      <point x="208" y="394"/>
      <point x="257" y="394" type="curve" smooth="yes"/>
      <point x="318" y="394"/>
      <point x="390" y="348"/>
      <point x="390" y="223" type="curve" smooth="yes"/>
      <point x="390" y="93"/>
      <point x="308" y="50"/>
      <point x="247" y="50" type="curve" smooth="yes"/>
      <point x="219" y="50"/>
      <point x="200" y="60"/>
      <point x="182" y="74" type="curve"/>
      <point x="158" y="95"/>
      <point x="154" y="113"/>
      <point x="154" y="130" type="curve" smooth="yes"/>
    </contour>
  </outline>
</glyph>
<glyph name="c" format="2">
  <advance width="435"/>
  <unicode hex="0063"/>
  <outline>
    <contour>
      <point x="401" y="108" type="line"/>
      <point x="355" y="71"/>
      <point x="304" y="52"/>
      <point x="248" y="52" type="curve" smooth="yes"/>
      <point x="165" y="52"/>
      <point x="111" y="126"/>
      <point x="111" y="223" type="curve" smooth="yes"/>
      <point x="111" y="306"/>
      <point x="151" y="397"/>
      <point x="251" y="397" type="curve" smooth="yes"/>
      <point x="318" y="397"/>
      <point x="346" y="381"/>
      <point x="389" y="352" type="curve"/>
      <point x="401" y="417" type="line"/>
      <point x="343" y="451"/>
      <point x="310" y="459"/>
      <point x="251" y="459" type="curve" smooth="yes"/>
      <point x="113" y="459"/>
      <point x="35" y="337"/>
      <point x="35" y="223" type="curve" smooth="yes"/>
      <point x="35" y="95"/>
      <point x="127" y="-10"/>
      <point x="247" y="-10" type="curve" smooth="yes"/>
      <point x="296" y="-10"/>
      <point x="352" y="2"/>
      <point x="407" y="42" type="curve"/>
    </contour>
  </outline>
</glyph>
<glyph name="d" format="2">
  <advance width="502"/>
  <unicode hex="0064"/>
  <outline>
    <contour>
      <point x="423" y="694" type="line"/>
      <point x="349" y="694" type="line"/>
      <point x="349" y="402" type="line"/>
      <point x="303" y="440"/>
      <point x="251" y="454"/>
      <point x="208" y="454" type="curve" smooth="yes"/>
      <point x="113" y="454"/>
      <point x="35" y="352"/>
      <point x="35" y="222" type="curve" smooth="yes"/>
      <point x="35" y="93"/>
      <point x="109" y="-10"/>
      <point x="204" y="-10" type="curve" smooth="yes"/>
      <point x="241" y="-10"/>
      <point x="297" y="2"/>
      <point x="347" y="51" type="curve"/>
      <point x="347" y="0" type="line"/>
      <point x="423" y="0" type="line"/>
    </contour>
    <contour>
      <point x="347" y="118" type="line"/>
      <point x="335.81552" y="97.96114"/>
      <point x="322.2421189556" y="81.8314235272"/>
      <point x="306.4822123186384" y="70.31930466303446" type="curve" smooth="yes"/>
      <point x="288.4240282364" y="57.12836601"/>
      <point x="267.49512" y="50.0"/>
      <point x="244" y="50" type="curve" smooth="yes"/>
      <point x="183" y="50"/>
      <point x="111" y="97"/>
      <point x="111" y="221" type="curve" smooth="yes"/>
      <point x="111" y="354"/>
      <point x="196" y="394"/>
      <point x="254" y="394" type="curve" smooth="yes"/>
      <point x="293" y="394"/>
      <point x="325" y="374"/>
      <point x="347" y="341" type="curve"/>
    </contour>
  </outline>
</glyph>
<glyph name="e" format="2">
  <advance width="435"/>
  <unicode hex="0065"/>
  <outline>
    <contour>
      <point x="407" y="225" type="line"/>
      <point x="407" y="268"/>
      <point x="403" y="329"/>
      <point x="371" y="382" type="curve" smooth="yes"/>
      <point x="330" y="451"/>
      <point x="260" y="459"/>
      <point x="231" y="459" type="curve" smooth="yes"/>
      <point x="123" y="459"/>
      <point x="33" y="355"/>
      <point x="33" y="225" type="curve" smooth="yes"/>
      <point x="33" y="93"/>
      <point x="129" y="-10"/>
      <point x="245" y="-10" type="curve" smooth="yes"/>
      <point x="291" y="-10"/>
      <point x="346" y="3"/>
      <point x="401" y="43" type="curve"/>
      <point x="401" y="47"/>
      <point x="398" y="78"/>
      <point x="398" y="80" type="curve"/>
      <point x="397" y="81"/>
      <point x="395" y="103"/>
      <point x="395" y="107" type="curve"/>
      <point x="336" y="57"/>
      <point x="277" y="50"/>
      <point x="247" y="50" type="curve" smooth="yes"/>
      <point x="170" y="50"/>
      <point x="104" y="119"/>
      <point x="102" y="225" type="curve"/>
    </contour>
    <contour>
      <point x="108" y="279" type="line"/>
      <point x="125" y="346"/>
      <point x="172" y="399"/>
      <point x="231" y="399" type="curve" smooth="yes"/>
      <point x="262" y="399"/>
      <point x="331" y="385"/>
      <point x="348" y="279" type="curve"/>
    </contour>
  </outline>
</glyph>
<glyph name="i" format="2">
  <advance width="230"/>
  <unicode hex="0069"/>
  <outline>
    <contour>
      <point x="158" y="679" type="line"/>
      <point x="72" y="679" type="line"/>
      <point x="72" y="593" type="line"/>
      <point x="158" y="593" type="line"/>
    </contour>
    <contour>
      <point x="152" y="444" type="line"/>
      <point x="78" y="444" type="line"/>
      <point x="78" y="0" type="line"/>
      <point x="152" y="0" type="line"/>
    </contour>
  </outline>
</glyph>
<glyph name="j" format="2">
  <advance width="257"/>
  <unicode hex="006A"/>
  <outline>
    <contour>
      <point x="179" y="679" type="line"/>
      <point x="93" y="679" type="line"/>
      <point x="93" y="593" type="line"/>
      <point x="179" y="593" type="line"/>
    </contour>
    <contour>
      <point x="-62" y="-170" type="line"/>
      <point x="-30" y="-189"/>
      <point x="10" y="-204"/>
      <point x="56" y="-204" type="curve" smooth="yes"/>
      <point x="119" y="-204"/>
      <point x="179" y="-152"/>
      <point x="179" y="-59" type="curve" smooth="yes"/>
      <point x="179" y="444" type="line"/>
      <point x="105" y="444" type="line"/>
      <point x="105" y="-69" type="line" smooth="yes"/>
      <point x="105.0" y="-93.15768"/>
      <point x="97.3012102764" y="-109.2379412736"/>
      <point x="86.70121620593864" y="-119.93101861149457" type="curve" smooth="yes"/>
      <point x="67.46392470960001" y="-139.33724132959998"/>
      <point x="38.67110000000001" y="-140.99999999999997"/>
      <point x="29" y="-141" type="curve" smooth="yes"/>
      <point x="-10" y="-141"/>
      <point x="-37" y="-121"/>
      <point x="-47" y="-110" type="curve"/>
    </contour>
  </outline>
</glyph>
<glyph name="k" format="2">
  <advance width="475"/>
  <unicode hex="006B"/>
  <outline>
    <contour>
      <point x="272" y="273" type="line"/>
      <point x="436" y="444" type="line"/>
      <point x="344" y="444" type="line"/>
      <point x="151" y="243" type="line"/>
      <point x="151" y="694" type="line"/>
      <point x="78" y="694" type="line"/>
      <point x="78" y="0" type="line"/>
      <point x="148" y="0" type="line"/>
      <point x="148" y="144" type="line"/>
      <point x="224" y="223" type="line"/>
      <point x="376" y="0" type="line"/>
      <point x="458" y="0" type="line"/>
    </contour>
  </outline>
</glyph>
<glyph name="l" format="2">
  <advance width="230"/>
  <unicode hex="006C"/>
  <outline>
    <contour>
      <point x="152" y="694" type="line"/>
      <point x="78" y="694" type="line"/>
      <point x="78" y="0" type="line"/>
      <point x="152" y="0" type="line"/>
    </contour>
  </outline>
</glyph>
<glyph name="n" format="2">
  <advance width="502"/>
  <unicode hex="006E"/>
  <outline>
    <contour>
      <point x="424" y="301" type="line" smooth="yes"/>
      <point x="424" y="362"/>
      <point x="411" y="454"/>
      <point x="290" y="454" type="curve" smooth="yes"/>
      <point x="234" y="454"/>
      <point x="186" y="429"/>
      <point x="148" y="381" type="curve"/>
      <point x="148" y="449" type="line"/>
      <point x="77" y="449" type="line"/>
      <point x="77" y="0" type="line"/>
      <point x="153" y="0" type="line"/>
      <point x="153" y="249" type="line" smooth="yes"/>
      <point x="153" y="311"/>
      <point x="176" y="394"/>
      <point x="252" y="394" type="curve" smooth="yes"/>
      <point x="345" y="394"/>
      <point x="348" y="329"/>
      <point x="348" y="294" type="curve" smooth="yes"/>
      <point x="348" y="0" type="line"/>
      <point x="424" y="0" type="line"/>
    </contour>
  </outline>
</glyph>
<glyph name="p" format="2">
  <advance width="502"/>
  <unicode hex="0070"/>
  <outline>
    <contour>
      <point x="154" y="45" type="line"/>
      <point x="188" y="14"/>
      <point x="230" y="-10"/>
      <point x="284" y="-10" type="curve" smooth="yes"/>
      <point x="380" y="-10"/>
      <point x="466" y="87"/>
      <point x="466" y="223" type="curve" smooth="yes"/>
      <point x="466" y="344"/>
      <point x="402" y="454"/>
      <point x="309" y="454" type="curve" smooth="yes"/>
      <point x="268" y="454"/>
      <point x="204" y="441"/>
      <point x="152" y="397" type="curve"/>
      <point x="152" y="444" type="line"/>
      <point x="78" y="444" type="line"/>
      <point x="78" y="-194" type="line"/>
      <point x="154" y="-194" type="line"/>
    </contour>
    <contour>
      <point x="154" y="336" type="line"/>
      <point x="177" y="370"/>
      <point x="215" y="392"/>
      <point x="256" y="392" type="curve" smooth="yes"/>
      <point x="330" y="392"/>
      <point x="390" y="317"/>
      <point x="390" y="222" type="curve" smooth="yes"/>
      <point x="390" y="122"/>
      <point x="321" y="50"/>
      <point x="247" y="50" type="curve" smooth="yes"/>
      <point x="219" y="50"/>
      <point x="200" y="60"/>
      <point x="182" y="74" type="curve"/>
      <point x="157" y="96"/>
      <point x="154" y="114"/>
      <point x="154" y="130" type="curve" smooth="yes"/>
    </contour>
  </outline>
</glyph>
<glyph name="r" format="2">
  <advance width="332"/>
  <unicode hex="0072"/>
  <outline>
    <contour>
      <point x="152" y="219" type="line" smooth="yes"/>
      <point x="152" y="320"/>
      <point x="228" y="386"/>
      <point x="318" y="387" type="curve"/>
      <point x="318" y="454" type="line"/>
      <point x="227" y="453"/>
      <point x="174" y="400"/>
      <point x="147" y="361" type="curve"/>
      <point x="147" y="449" type="line"/>
      <point x="78" y="449" type="line"/>
      <point x="78" y="0" type="line"/>
      <point x="152" y="0" type="line"/>
    </contour>
  </outline>
</glyph>
<glyph name="s" format="2">
  <advance width="375"/>
  <unicode hex="0073"/>
  <outline>
    <contour>
      <point x="336" y="428" type="line"/>
      <point x="272" y="458"/>
      <point x="218" y="459"/>
      <point x="195" y="459" type="curve" smooth="yes"/>
      <point x="172" y="459"/>
      <point x="33" y="459"/>
      <point x="33" y="329" type="curve" smooth="yes"/>
      <point x="33" y="285"/>
      <point x="57" y="255"/>
      <point x="72" y="241" type="curve" smooth="yes"/>
      <point x="108" y="210"/>
      <point x="133" y="205"/>
      <point x="192" y="193" type="curve" smooth="yes"/>
      <point x="225" y="186"/>
      <point x="283" y="174"/>
      <point x="283" y="121" type="curve" smooth="yes"/>
      <point x="283" y="52"/>
      <point x="205" y="52"/>
      <point x="191" y="52" type="curve" smooth="yes"/>
      <point x="151" y="52"/>
      <point x="93" y="63"/>
      <point x="39" y="102" type="curve"/>
      <point x="27" y="34" type="line"/>
      <point x="32" y="31"/>
      <point x="100" y="-10"/>
      <point x="192" y="-10" type="curve" smooth="yes"/>
      <point x="321" y="-10"/>
      <point x="352" y="68"/>
      <point x="352" y="127" type="curve" smooth="yes"/>
      <point x="352" y="178"/>
      <point x="321" y="210"/>
      <point x="317" y="215" type="curve"/>
      <point x="280" y="253"/>
      <point x="250" y="259"/>
      <point x="189" y="271" type="curve" smooth="yes"/>
      <point x="153" y="278"/>
      <point x="102" y="288"/>
      <point x="102" y="338" type="curve" smooth="yes"/>
      <point x="102" y="400"/>
      <point x="172" y="400"/>
      <point x="185" y="400" type="curve" smooth="yes"/>
      <point x="238" y="400"/>
      <point x="280" y="388"/>
      <point x="324" y="363" type="curve"/>
    </contour>
  </outline>
</glyph>
<glyph name="t" format="2">
  <advance width="353"/>
  <unicode hex="0074"/>
  <outline>
    <contour>
      <point x="171" y="386" type="line"/>
      <point x="309" y="386" type="line"/>
      <point x="309" y="444" type="line"/>
      <point x="171" y="444" type="line"/>
      <point x="171" y="571" type="line"/>
      <point x="102" y="571" type="line"/>
      <point x="102" y="444" type="line"/>
      <point x="18" y="444" type="line"/>
      <point x="18" y="386" type="line"/>
      <point x="100" y="386" type="line"/>
      <point x="100" y="117" type="line" smooth="yes"/>
      <point x="100" y="59"/>
      <point x="113" y="-10"/>
      <point x="182" y="-10" type="curve" smooth="yes"/>
      <point x="249" y="-10"/>
      <point x="295" y="13"/>
      <point x="326" y="29" type="curve"/>
      <point x="311" y="87" type="line"/>
      <point x="276" y="56"/>
      <point x="239" y="52"/>
      <point x="221" y="52" type="curve" smooth="yes"/>
      <point x="177" y="52"/>
      <point x="171" y="99"/>
      <point x="171" y="134" type="curve" smooth="yes"/>
    </contour>
  </outline>
</glyph>
<glyph name="u" format="2">
  <advance width="502"/>
  <unicode hex="0075"/>
  <outline>
    <contour>
      <point x="424" y="444" type="line"/>
      <point x="348" y="444" type="line"/>
      <point x="348" y="158" type="line" smooth="yes"/>
      <point x="348" y="82"/>
      <point x="295" y="45"/>
      <point x="230" y="45" type="curve" smooth="yes"/>
      <point x="160" y="45"/>
      <point x="153" y="71"/>
      <point x="153" y="115" type="curve" smooth="yes"/>
      <point x="153" y="444" type="line"/>
      <point x="77" y="444" type="line"/>
      <point x="77" y="111" type="line" smooth="yes"/>
      <point x="77" y="39"/>
      <point x="100" y="-10"/>
      <point x="182" y="-10" type="curve" smooth="yes"/>
      <point x="210" y="-10"/>
      <point x="289" y="-5"/>
      <point x="350" y="50" type="curve"/>
      <point x="350" y="0" type="line"/>
      <point x="424" y="0" type="line"/>
    </contour>
  </outline>
</glyph>
<glyph name="x" format="2">
  <advance width="447"/>
  <unicode hex="0078"/>
  <outline>
    <contour>
      <point x="254" y="229" type="line"/>
      <point x="431" y="444" type="line"/>
      <point x="347" y="444" type="line"/>
      <point x="221" y="282" type="line"/>
      <point x="90" y="444" type="line"/>
      <point x="5" y="444" type="line"/>
      <point x="187" y="229" type="line"/>
      <point x="0" y="0" type="line"/>
      <point x="83" y="0" type="line"/>
      <point x="221" y="186" type="line"/>
      <point x="363" y="0" type="line"/>
      <point x="447" y="0" type="line"/>
    </contour>
  </outline>
</glyph>
<glyph name="exclamdown" format="2">
  <advance width="311"/>
  <unicode hex="00A1"/>
  <outline>
    <contour>
      <point x="196" y="500" type="line"/>
      <point x="115" y="500" type="line"/>
      <point x="115" y="419" type="line"/>
      <point x="196" y="419" type="line"/>
    </contour>
    <contour>
      <point x="115" y="-194" type="line"/>
      <point x="196" y="-194" type="line"/>
      <point x="188" y="327" type="line"/>
      <point x="123" y="327" type="line"/>
    </contour>
  </outline>
</glyph>
<glyph name="dieresis" format="2">
  <advance width="489"/>
  <unicode hex="00A8"/>
  <outline>
    <contour>
      <point x="190" y="679" type="line"/>
      <point x="109" y="679" type="line"/>
      <point x="109" y="598" type="line"/>
      <point x="190" y="598" type="line"/>
    </contour>
    <contour>
      <point x="380" y="679" type="line"/>
      <point x="299" y="679" type="line"/>
      <point x="299" y="598" type="line"/>
      <point x="380" y="598" type="line"/>
    </contour>
  </outline>
</glyph>
<glyph name="macron" format="2">
  <advance width="489"/>
  <unicode hex="00AF"/>
  <outline>
    <contour>
      <point x="421" y="566" type="line"/>
      <point x="421" y="629" type="line"/>
      <point x="68" y="629" type="line"/>
      <point x="68" y="566" type="line"/>
    </contour>
  </outline>
</glyph>
<glyph name="acute" format="2">
  <advance width="489"/>
  <unicode hex="00B4"/>
  <outline>
    <contour>
      <point x="407" y="694" type="line"/>
      <point x="331" y="694" type="line"/>
      <point x="201" y="527" type="line"/>
      <point x="261" y="527" type="line"/>
    </contour>
  </outline>
</glyph>
<glyph name="cedilla" format="2">
  <advance width="435"/>
  <unicode hex="00B8"/>
  <outline>
    <contour>
      <point x="274" y="-23" type="line"/>
      <point x="214" y="-23" type="line"/>
      <point x="142" y="-191" type="line"/>
      <point x="210" y="-191" type="line"/>
    </contour>
  </outline>
</glyph>
<glyph name="AE" format="2">
  <advance width="840"/>
  <unicode hex="00C6"/>
  <outline>
    <contour>
      <point x="189" y="222" type="line"/>
      <point x="407" y="222" type="line"/>
      <point x="407" y="0" type="line"/>
      <point x="798" y="0" type="line"/>
      <point x="798" y="68" type="line"/>
      <point x="689" y="68" type="line" smooth="yes"/>
      <point x="677" y="68"/>
      <point x="665" y="67"/>
      <point x="653" y="67" type="curve" smooth="yes"/>
      <point x="492" y="67" type="line"/>
      <point x="492" y="331" type="line"/>
      <point x="757" y="331" type="line"/>
      <point x="757" y="391" type="line"/>
      <point x="492" y="391" type="line"/>
      <point x="492" y="632" type="line"/>
      <point x="599" y="632" type="line" smooth="yes"/>
      <point x="611" y="632"/>
      <point x="623" y="631"/>
      <point x="635" y="631" type="curve" smooth="yes"/>
      <point x="785" y="631" type="line"/>
      <point x="785" y="694" type="line"/>
      <point x="302" y="694" type="line"/>
      <point x="27" y="0" type="line"/>
      <point x="101" y="0" type="line"/>
    </contour>
    <contour>
      <point x="351" y="632" type="line"/>
      <point x="407" y="632" type="line"/>
      <point x="407" y="278" type="line"/>
      <point x="211" y="278" type="line"/>
    </contour>
  </outline>
</glyph>
<glyph name="Oslash" format="2">
  <advance width="761"/>
  <unicode hex="00D8"/>
  <outline>
    <contour>
      <point x="632" y="728" type="line"/>
      <point x="578" y="758" type="line"/>
      <point x="531" y="674" type="line"/>
      <point x="486" y="699"/>
      <point x="433" y="715"/>
      <point x="381" y="715" type="curve" smooth="yes"/>
      <point x="202" y="715"/>
      <point x="54" y="552"/>
      <point x="54" y="345" type="curve" smooth="yes"/>
      <point x="54" y="201"/>
      <point x="126" y="101"/>
      <point x="180" y="57" type="curve"/>
      <point x="129" y="-34" type="line"/>
      <point x="183" y="-64" type="line"/>
      <point x="230" y="20" type="line"/>
      <point x="235" y="17"/>
      <point x="298" y="-21"/>
      <point x="380" y="-21" type="curve" smooth="yes"/>
      <point x="558" y="-21"/>
      <point x="707" y="139"/>
      <point x="707" y="345" type="curve" smooth="yes"/>
      <point x="707" y="515"/>
      <point x="613" y="606"/>
      <point x="581" y="637" type="curve"/>
    </contour>
    <contour>
      <point x="214" y="117" type="line"/>
      <point x="184" y="151"/>
      <point x="138" y="223"/>
      <point x="138" y="345" type="curve" smooth="yes"/>
      <point x="138" y="545"/>
      <point x="259" y="655"/>
      <point x="380" y="655" type="curve" smooth="yes"/>
      <point x="427" y="655"/>
      <point x="469" y="638"/>
      <point x="499" y="619" type="curve"/>
    </contour>
    <contour>
      <point x="547" y="576" type="line"/>
      <point x="602" y="513"/>
      <point x="623" y="428"/>
      <point x="623" y="345" type="curve" smooth="yes"/>
      <point x="623" y="146"/>
      <point x="502" y="39"/>
      <point x="381" y="39" type="curve" smooth="yes"/>
      <point x="327" y="39"/>
      <point x="284" y="60"/>
      <point x="262" y="75" type="curve"/>
    </contour>
  </outline>
</glyph>
<glyph name="germandbls" format="2">
  <advance width="468"/>
  <unicode hex="00DF"/>
  <outline>
    <contour>
      <point x="318" y="411" type="curve"/>
      <point x="379" y="445"/>
      <point x="414" y="501"/>
      <point x="414" y="558" type="curve" smooth="yes"/>
      <point x="414" y="639"/>
      <point x="339" y="704"/>
      <point x="246" y="704" type="curve" smooth="yes"/>
      <point x="168" y="704"/>
      <point x="78" y="654"/>
      <point x="78" y="552" type="curve" smooth="yes"/>
      <point x="78" y="0" type="line"/>
      <point x="152" y="0" type="line"/>
      <point x="152" y="550" type="line" smooth="yes"/>
      <point x="152" y="640"/>
      <point x="225" y="644"/>
      <point x="246" y="644" type="curve" smooth="yes"/>
      <point x="295" y="644"/>
      <point x="339" y="615"/>
      <point x="339" y="558" type="curve" smooth="yes"/>
      <point x="339" y="513"/>
      <point x="307" y="446"/>
      <point x="206" y="444" type="curve"/>
      <point x="206" y="384" type="line"/>
      <point x="307" y="381"/>
      <point x="366" y="285"/>
      <point x="366" y="179" type="curve" smooth="yes"/>
      <point x="366" y="101"/>
      <point x="325" y="50"/>
      <point x="267" y="50" type="curve" smooth="yes"/>
      <point x="253" y="50"/>
      <point x="226" y="53"/>
      <point x="201" y="64" type="curve"/>
      <point x="185" y="20" type="line"/>
      <point x="185" y="19"/>
      <point x="181" y="10"/>
      <point x="181" y="9" type="curve" smooth="yes"/>
      <point x="181" y="4"/>
      <point x="227" y="-10"/>
      <point x="268" y="-10" type="curve" smooth="yes"/>
      <point x="363" y="-10"/>
      <point x="441" y="72"/>
      <point x="441" y="179" type="curve" smooth="yes"/>
      <point x="441" y="263"/>
      <point x="403" y="360"/>
    </contour>
  </outline>
</glyph>
<glyph name="ae" format="2">
  <advance width="707"/>
  <unicode hex="00E6"/>
  <outline>
    <contour>
      <point x="679" y="225" type="line"/>
      <point x="679" y="261"/>
      <point x="678" y="459"/>
      <point x="516" y="459" type="curve" smooth="yes"/>
      <point x="503" y="459"/>
      <point x="428" y="459"/>
      <point x="368" y="382" type="curve"/>
      <point x="344" y="419"/>
      <point x="303" y="459"/>
      <point x="229" y="459" type="curve" smooth="yes"/>
      <point x="169" y="459"/>
      <point x="123" y="444"/>
      <point x="75" y="417" type="curve"/>
      <point x="81" y="351" type="line"/>
      <point x="119" y="378"/>
      <point x="164" y="401"/>
      <point x="230" y="401" type="curve" smooth="yes"/>
      <point x="271" y="401"/>
      <point x="315" y="368"/>
      <point x="315" y="291" type="curve" smooth="yes"/>
      <point x="315" y="252" type="line"/>
      <point x="173" y="251"/>
      <point x="46" y="207"/>
      <point x="46" y="116" type="curve" smooth="yes"/>
      <point x="46" y="82"/>
      <point x="64" y="-10"/>
      <point x="157" y="-10" type="curve" smooth="yes"/>
      <point x="161" y="-10"/>
      <point x="220" y="-10"/>
      <point x="274" y="5" type="curve" smooth="yes"/>
      <point x="342" y="25"/>
      <point x="362" y="56"/>
      <point x="370" y="67" type="curve"/>
      <point x="413" y="18"/>
      <point x="469" y="-10"/>
      <point x="531" y="-10" type="curve" smooth="yes"/>
      <point x="610" y="-10"/>
      <point x="673" y="38"/>
      <point x="673" y="47" type="curve" smooth="yes"/>
      <point x="673" y="52"/>
      <point x="670" y="75"/>
      <point x="670" y="80" type="curve"/>
      <point x="669" y="81"/>
      <point x="667" y="103"/>
      <point x="667" y="107" type="curve"/>
      <point x="623" y="64"/>
      <point x="571" y="50"/>
      <point x="532" y="50" type="curve" smooth="yes"/>
      <point x="462" y="50"/>
      <point x="393" y="113"/>
      <point x="391" y="225" type="curve"/>
    </contour>
    <contour>
      <point x="397" y="279" type="line"/>
      <point x="415" y="353"/>
      <point x="465" y="399"/>
      <point x="516" y="399" type="curve" smooth="yes"/>
      <point x="564" y="399"/>
      <point x="607" y="362"/>
      <point x="619" y="279" type="curve"/>
    </contour>
    <contour>
      <point x="316" y="198" type="curve"/>
      <point x="317" y="180"/>
      <point x="319" y="150"/>
      <point x="319" y="133" type="curve" smooth="yes"/>
      <point x="319" y="112"/>
      <point x="319" y="90"/>
      <point x="286" y="70" type="curve" smooth="yes"/>
      <point x="264" y="56"/>
      <point x="232" y="50"/>
      <point x="206" y="50" type="curve" smooth="yes"/>
      <point x="154" y="50"/>
      <point x="117" y="80"/>
      <point x="117" y="117" type="curve" smooth="yes"/>
      <point x="117" y="188"/>
      <point x="269" y="196"/>
    </contour>
  </outline>
</glyph>
<glyph name="OE" format="2">
  <advance width="949"/>
  <unicode hex="0152"/>
  <outline>
    <contour>
      <point x="348" y="-21" type="curve" smooth="yes"/>
      <point x="372" y="-21"/>
      <point x="390" y="-18"/>
      <point x="428" y="-10" type="curve" smooth="yes"/>
      <point x="464" y="-2"/>
      <point x="480" y="0"/>
      <point x="505" y="0" type="curve" smooth="yes"/>
      <point x="907" y="0" type="line"/>
      <point x="907" y="68" type="line"/>
      <point x="543" y="68" type="line"/>
      <point x="543" y="331" type="line"/>
      <point x="866" y="331" type="line"/>
      <point x="866" y="391" type="line"/>
      <point x="543" y="391" type="line"/>
      <point x="543" y="631" type="line"/>
      <point x="894" y="631" type="line"/>
      <point x="894" y="694" type="line"/>
      <point x="505" y="694" type="line" smooth="yes"/>
      <point x="494" y="694"/>
      <point x="473" y="694"/>
      <point x="430" y="703" type="curve" smooth="yes"/>
      <point x="378" y="715"/>
      <point x="360" y="715"/>
      <point x="348" y="715" type="curve" smooth="yes"/>
      <point x="180" y="715"/>
      <point x="24" y="558"/>
      <point x="24" y="345" type="curve" smooth="yes"/>
      <point x="24" y="133"/>
      <point x="180" y="-21"/>
    </contour>
    <contour>
      <point x="353" y="39" type="curve" smooth="yes"/>
      <point x="215" y="39"/>
      <point x="108" y="184"/>
      <point x="108" y="360" type="curve" smooth="yes"/>
      <point x="108" y="527"/>
      <point x="218" y="655"/>
      <point x="352" y="655" type="curve" smooth="yes"/>
      <point x="431" y="655"/>
      <point x="459" y="631"/>
      <point x="459" y="495" type="curve" smooth="yes"/>
      <point x="459" y="445"/>
      <point x="459" y="394"/>
      <point x="459" y="344" type="curve" smooth="yes"/>
      <point x="459" y="296"/>
      <point x="459" y="247"/>
      <point x="459" y="199" type="curve" smooth="yes"/>
      <point x="459" y="65"/>
      <point x="432" y="39"/>
    </contour>
  </outline>
</glyph>
<glyph name="circumflex" format="2">
  <advance width="489"/>
  <unicode hex="02C6"/>
  <outline>
    <contour>
      <point x="275" y="694" type="line"/>
      <point x="214" y="694" type="line"/>
      <point x="76" y="527" type="line"/>
      <point x="136" y="527" type="line"/>
      <point x="244" y="650" type="line"/>
      <point x="353" y="527" type="line"/>
      <point x="413" y="527" type="line"/>
    </contour>
  </outline>
</glyph>
<glyph name="caron" format="2">
  <advance width="489"/>
  <unicode hex="02C7"/>
  <outline>
    <contour>
      <point x="413" y="653" type="line"/>
      <point x="353" y="653" type="line"/>
      <point x="245" y="530" type="line"/>
      <point x="136" y="653" type="line"/>
      <point x="76" y="653" type="line"/>
      <point x="214" y="486" type="line"/>
      <point x="275" y="486" type="line"/>
    </contour>
  </outline>
</glyph>
<glyph name="dotaccent" format="2">
  <advance width="271"/>
  <unicode hex="02D9"/>
  <outline>
    <contour>
      <point x="179" y="679" type="line"/>
      <point x="93" y="679" type="line"/>
      <point x="93" y="593" type="line"/>
      <point x="179" y="593" type="line"/>
    </contour>
  </outline>
</glyph>
<glyph name="hungarumlaut" format="2">
  <advance width="489"/>
  <unicode hex="02DD"/>
  <outline>
    <contour>
      <point x="244" y="694" type="line"/>
      <point x="168" y="694" type="line"/>
      <point x="106" y="527" type="line"/>
      <point x="166" y="527" type="line"/>
    </contour>
    <contour>
      <point x="407" y="694" type="line"/>
      <point x="331" y="694" type="line"/>
      <point x="269" y="527" type="line"/>
      <point x="329" y="527" type="line"/>
    </contour>
  </outline>
</glyph>
<glyph name="Gamma" format="2">
  <advance width="528"/>
  <unicode hex="0393"/>
  <outline>
    <contour>
      <point x="292" y="630" type="line" smooth="yes"/>
      <point x="304" y="630"/>
      <point x="316" y="629"/>
      <point x="328" y="629" type="curve" smooth="yes"/>
      <point x="487" y="629" type="line"/>
      <point x="487" y="692" type="line"/>
      <point x="90" y="692" type="line"/>
      <point x="90" y="0" type="line"/>
      <point x="176" y="0" type="line"/>
      <point x="176" y="630" type="line"/>
    </contour>
  </outline>
</glyph>
<glyph name="Theta" format="2">
  <advance width="761"/>
  <unicode hex="0398"/>
  <outline>
    <contour>
      <point x="707" y="345" type="curve" smooth="yes"/>
      <point x="707" y="555"/>
      <point x="556" y="715"/>
      <point x="381" y="715" type="curve" smooth="yes"/>
      <point x="202" y="715"/>
      <point x="54" y="552"/>
      <point x="54" y="345" type="curve" smooth="yes"/>
      <point x="54" y="136"/>
      <point x="206" y="-21"/>
      <point x="380" y="-21" type="curve" smooth="yes"/>
      <point x="558" y="-21"/>
      <point x="707" y="139"/>
    </contour>
    <contour>
      <point x="381" y="40" type="curve" smooth="yes"/>
      <point x="250" y="40"/>
      <point x="135" y="162"/>
      <point x="135" y="345" type="curve" smooth="yes"/>
      <point x="135" y="532"/>
      <point x="252" y="655"/>
      <point x="380" y="655" type="curve" smooth="yes"/>
      <point x="512" y="655"/>
      <point x="626" y="529"/>
      <point x="626" y="345" type="curve" smooth="yes"/>
      <point x="626" y="159"/>
      <point x="508" y="40"/>
    </contour>
    <contour>
      <point x="190" y="388" type="line"/>
      <point x="190" y="307" type="line"/>
      <point x="571" y="307" type="line"/>
      <point x="571" y="388" type="line"/>
    </contour>
  </outline>
</glyph>
<glyph name="Lambda" format="2">
  <advance width="592"/>
  <unicode hex="039B"/>
  <outline>
    <contour>
      <point x="339" y="694" type="line"/>
      <point x="253" y="694" type="line"/>
      <point x="27" y="0" type="line"/>
      <point x="100" y="0" type="line"/>
      <point x="197" y="302" type="line" smooth="yes"/>
      <point x="223" y="382"/>
      <point x="280" y="560"/>
      <point x="287" y="618" type="curve"/>
      <point x="288" y="618" type="line"/>
      <point x="295" y="559"/>
      <point x="350" y="388"/>
      <point x="375" y="309" type="curve" smooth="yes"/>
      <point x="474" y="0" type="line"/>
      <point x="565" y="0" type="line"/>
    </contour>
  </outline>
</glyph>
<glyph name="Xi" format="2">
  <advance width="652"/>
  <unicode hex="039E"/>
  <outline>
    <contour>
      <point x="168" y="616" type="line" smooth="yes"/>
      <point x="220" y="616"/>
      <point x="273" y="617"/>
      <point x="325" y="617" type="curve" smooth="yes"/>
      <point x="378" y="617"/>
      <point x="431" y="616"/>
      <point x="484" y="616" type="curve" smooth="yes"/>
      <point x="606" y="616" type="line"/>
      <point x="606" y="689" type="line"/>
      <point x="46" y="689" type="line"/>
      <point x="46" y="616" type="line"/>
    </contour>
    <contour>
      <point x="486" y="73" type="line" smooth="yes"/>
      <point x="433" y="73"/>
      <point x="380" y="72"/>
      <point x="327" y="72" type="curve" smooth="yes"/>
      <point x="274" y="72"/>
      <point x="219" y="73"/>
      <point x="166" y="73" type="curve" smooth="yes"/>
      <point x="41" y="73" type="line"/>
      <point x="41" y="0" type="line"/>
      <point x="611" y="0" type="line"/>
      <point x="611" y="73" type="line"/>
    </contour>
    <contour>
      <point x="109" y="394" type="line"/>
      <point x="109" y="322" type="line"/>
      <point x="543" y="322" type="line"/>
      <point x="543" y="394" type="line"/>
    </contour>
  </outline>
</glyph>
<glyph name="Pi" format="2">
  <advance width="686"/>
  <unicode hex="03A0"/>
  <outline>
    <contour>
      <point x="595" y="692" type="line"/>
      <point x="90" y="692" type="line"/>
      <point x="90" y="0" type="line"/>
      <point x="176" y="0" type="line"/>
      <point x="176" y="632" type="line"/>
      <point x="509" y="632" type="line"/>
      <point x="509" y="0" type="line"/>
      <point x="595" y="0" type="line"/>
    </contour>
  </outline>
</glyph>
<glyph name="Sigma" format="2">
  <advance width="707"/>
  <unicode hex="03A3"/>
  <outline>
    <contour>
      <point x="379" y="347" type="line"/>
      <point x="162" y="632" type="line"/>
      <point x="362" y="632" type="line" smooth="yes"/>
      <point x="374" y="632"/>
      <point x="386" y="631"/>
      <point x="398" y="631" type="curve" smooth="yes"/>
      <point x="652" y="631" type="line"/>
      <point x="652" y="694" type="line"/>
      <point x="54" y="694" type="line"/>
      <point x="54" y="632" type="line"/>
      <point x="280" y="336" type="line"/>
      <point x="54" y="0" type="line"/>
      <point x="652" y="0" type="line"/>
      <point x="652" y="68" type="line"/>
      <point x="416" y="68" type="line" smooth="yes"/>
      <point x="404" y="68"/>
      <point x="392" y="67"/>
      <point x="380" y="67" type="curve" smooth="yes"/>
      <point x="191" y="67" type="line"/>
    </contour>
  </outline>
</glyph>
<glyph name="Upsilon" format="2">
  <advance width="761"/>
  <unicode hex="03A5"/>
  <outline>
    <contour>
      <point x="424" y="385" type="line" smooth="yes"/>
      <point x="424" y="594"/>
      <point x="476" y="650"/>
      <point x="551" y="650" type="curve" smooth="yes"/>
      <point x="594" y="650"/>
      <point x="629" y="613"/>
      <point x="631" y="555" type="curve"/>
      <point x="707" y="555" type="line"/>
      <point x="705" y="653"/>
      <point x="630" y="715"/>
      <point x="551" y="715" type="curve" smooth="yes"/>
      <point x="441" y="715"/>
      <point x="398" y="611"/>
      <point x="381" y="498" type="curve"/>
      <point x="380" y="498" type="line"/>
      <point x="370" y="565"/>
      <point x="342" y="715"/>
      <point x="210" y="715" type="curve" smooth="yes"/>
      <point x="131" y="715"/>
      <point x="56" y="653"/>
      <point x="54" y="555" type="curve"/>
      <point x="130" y="555" type="line"/>
      <point x="132" y="613"/>
      <point x="167" y="650"/>
      <point x="210" y="650" type="curve" smooth="yes"/>
      <point x="280" y="650"/>
      <point x="338" y="602"/>
      <point x="338" y="383" type="curve" smooth="yes"/>
      <point x="338" y="0" type="line"/>
      <point x="424" y="0" type="line"/>
    </contour>
  </outline>
</glyph>
<glyph name="Phi" format="2">
  <advance width="707"/>
  <unicode hex="03A6"/>
  <outline>
    <contour>
      <point x="391" y="694" type="line"/>
      <point x="310" y="694" type="line"/>
      <point x="310" y="587" type="line"/>
      <point x="174" y="574"/>
      <point x="54" y="473"/>
      <point x="54" y="347" type="curve" smooth="yes"/>
      <point x="54" y="221"/>
      <point x="174" y="120"/>
      <point x="310" y="107" type="curve"/>
      <point x="310" y="0" type="line"/>
      <point x="391" y="0" type="line"/>
      <point x="391" y="106" type="line"/>
      <point x="552" y="123"/>
      <point x="652" y="234"/>
      <point x="652" y="347" type="curve" smooth="yes"/>
      <point x="652" y="460"/>
      <point x="551" y="571"/>
      <point x="391" y="588" type="curve"/>
    </contour>
    <contour>
      <point x="310" y="167" type="line"/>
      <point x="199" y="183"/>
      <point x="138" y="260"/>
      <point x="138" y="347" type="curve" smooth="yes"/>
      <point x="138" y="434"/>
      <point x="199" y="511"/>
      <point x="310" y="527" type="curve"/>
    </contour>
    <contour>
      <point x="391" y="528" type="line"/>
      <point x="506" y="512"/>
      <point x="568" y="434"/>
      <point x="568" y="347" type="curve" smooth="yes"/>
      <point x="568" y="260"/>
      <point x="506" y="182"/>
      <point x="391" y="166" type="curve"/>
    </contour>
  </outline>
</glyph>
<glyph name="Psi" format="2">
  <advance width="761"/>
  <unicode hex="03A8"/>
  <outline>
    <contour>
      <point x="419" y="694" type="line"/>
      <point x="338" y="694" type="line"/>
      <point x="338" y="169" type="line"/>
      <point x="211" y="205"/>
      <point x="204" y="349"/>
      <point x="204" y="421" type="curve" smooth="yes"/>
      <point x="204" y="569"/>
      <point x="189" y="613"/>
      <point x="125" y="613" type="curve" smooth="yes"/>
      <point x="54" y="613" type="line"/>
      <point x="54" y="553" type="line"/>
      <point x="118" y="549"/>
      <point x="123" y="471"/>
      <point x="123" y="404" type="curve" smooth="yes"/>
      <point x="124" y="301"/>
      <point x="156" y="134"/>
      <point x="338" y="107" type="curve"/>
      <point x="338" y="0" type="line"/>
      <point x="419" y="0" type="line"/>
      <point x="419" y="107" type="line"/>
      <point x="636" y="134"/>
      <point x="638" y="365"/>
      <point x="638" y="425" type="curve" smooth="yes"/>
      <point x="638" y="479"/>
      <point x="648" y="550"/>
      <point x="707" y="553" type="curve"/>
      <point x="707" y="613" type="line"/>
      <point x="636" y="613" type="line" smooth="yes"/>
      <point x="593" y="613"/>
      <point x="557" y="603"/>
      <point x="557" y="440" type="curve" smooth="yes"/>
      <point x="557" y="366"/>
      <point x="556" y="203"/>
      <point x="419" y="169" type="curve"/>
    </contour>
  </outline>
</glyph>
<glyph name="endash" format="2">
  <advance width="489"/>
  <unicode hex="2013"/>
  <outline>
    <contour>
      <point x="489" y="244" type="line"/>
      <point x="489" y="304" type="line"/>
      <point x="0" y="304" type="line"/>
      <point x="0" y="244" type="line"/>
    </contour>
  </outline>
</glyph>
<glyph name="emdash" format="2">
  <advance width="979"/>
  <unicode hex="2014"/>
  <outline>
    <contour>
      <point x="978" y="244" type="line"/>
      <point x="978" y="304" type="line"/>
      <point x="0" y="304" type="line"/>
      <point x="0" y="244" type="line"/>
    </contour>
  </outline>
</glyph>
<glyph name="quoteleft" format="2">
  <advance width="271"/>
  <unicode hex="2018"/>
  <outline>
    <contour>
      <point x="176" y="694" type="line"/>
      <point x="136" y="694" type="line"/>
      <point x="95" y="568" type="line"/>
      <point x="95" y="488" type="line"/>
      <point x="176" y="488" type="line"/>
      <point x="176" y="569" type="line"/>
      <point x="151" y="569" type="line"/>
    </contour>
  </outline>
</glyph>
<glyph name="quoteright" format="2">
  <advance width="271"/>
  <unicode hex="2019"/>
  <outline>
    <contour>
      <point x="176" y="614" type="line"/>
      <point x="176" y="694" type="line"/>
      <point x="95" y="694" type="line"/>
      <point x="95" y="613" type="line"/>
      <point x="120" y="613" type="line"/>
      <point x="95" y="488" type="line"/>
      <point x="135" y="488" type="line"/>
    </contour>
  </outline>
</glyph>
<glyph name="quotedblleft" format="2">
  <advance width="489"/>
  <unicode hex="201C"/>
  <outline>
    <contour>
      <point x="266" y="694" type="line"/>
      <point x="226" y="694" type="line"/>
      <point x="185" y="568" type="line"/>
      <point x="185" y="488" type="line"/>
      <point x="266" y="488" type="line"/>
      <point x="266" y="569" type="line"/>
      <point x="241" y="569" type="line"/>
    </contour>
    <contour>
      <point x="456" y="694" type="line"/>
      <point x="416" y="694" type="line"/>
      <point x="375" y="568" type="line"/>
      <point x="375" y="488" type="line"/>
      <point x="456" y="488" type="line"/>
      <point x="456" y="569" type="line"/>
      <point x="431" y="569" type="line"/>
    </contour>
  </outline>
</glyph>
<glyph name="Omega" format="2">
  <advance width="707"/>
  <unicode hex="2126"/>
  <outline>
    <contour>
      <point x="662" y="68" type="line"/>
      <point x="580" y="68" type="line" smooth="yes"/>
      <point x="568" y="68"/>
      <point x="556" y="67"/>
      <point x="544" y="67" type="curve" smooth="yes"/>
      <point x="493" y="67" type="line"/>
      <point x="505" y="117"/>
      <point x="523" y="152"/>
      <point x="567" y="230" type="curve" smooth="yes"/>
      <point x="610" y="305"/>
      <point x="652" y="378"/>
      <point x="652" y="462" type="curve" smooth="yes"/>
      <point x="652" y="599"/>
      <point x="522" y="715"/>
      <point x="353" y="715" type="curve" smooth="yes"/>
      <point x="183" y="715"/>
      <point x="54" y="598"/>
      <point x="54" y="462" type="curve" smooth="yes"/>
      <point x="54" y="378"/>
      <point x="95" y="307"/>
      <point x="143" y="222" type="curve" smooth="yes"/>
      <point x="194" y="133"/>
      <point x="204" y="103"/>
      <point x="213" y="67" type="curve"/>
      <point x="162" y="67" type="line" smooth="yes"/>
      <point x="150" y="67"/>
      <point x="138" y="68"/>
      <point x="126" y="68" type="curve" smooth="yes"/>
      <point x="44" y="68" type="line"/>
      <point x="44" y="0" type="line"/>
      <point x="282" y="0" type="line"/>
      <point x="282" y="64"/>
      <point x="264" y="122"/>
      <point x="216" y="222" type="curve" smooth="yes"/>
      <point x="178" y="300"/>
      <point x="140" y="379"/>
      <point x="140" y="461" type="curve" smooth="yes"/>
      <point x="140" y="574"/>
      <point x="233" y="655"/>
      <point x="353" y="655" type="curve" smooth="yes"/>
      <point x="473" y="655"/>
      <point x="566" y="573"/>
      <point x="566" y="461" type="curve" smooth="yes"/>
      <point x="566" y="386"/>
      <point x="535" y="315"/>
      <point x="494" y="228" type="curve" smooth="yes"/>
      <point x="453" y="143"/>
      <point x="425" y="78"/>
      <point x="424" y="0" type="curve"/>
      <point x="662" y="0" type="line"/>
    </contour>
  </outline>
</glyph>
<glyph name="Delta" format="2">
  <advance width="815"/>
  <unicode hex="2206"/>
  <outline>
    <contour>
      <point x="453" y="694" type="line"/>
      <point x="362" y="694" type="line"/>
      <point x="41" y="0" type="line"/>
      <point x="774" y="0" type="line"/>
    </contour>
    <contour>
      <point x="331" y="464" type="line" smooth="yes"/>
      <point x="366" y="544"/>
      <point x="387" y="589"/>
      <point x="398" y="622" type="curve"/>
      <point x="407" y="598"/>
      <point x="418" y="572"/>
      <point x="434" y="534" type="curve" smooth="yes"/>
      <point x="446" y="507"/>
      <point x="465" y="463"/>
      <point x="471" y="451" type="curve" smooth="yes"/>
      <point x="642" y="81" type="line"/>
      <point x="155" y="81" type="line"/>
    </contour>
  </outline>
</glyph>
<glyph name="dotlessj" format="2">
  <advance width="257"/>
  <outline>
    <contour>
      <point x="179" y="444" type="line"/>
      <point x="105" y="444" type="line"/>
      <point x="105" y="-69" type="line" smooth="yes"/>
      <point x="105" y="-135"/>
      <point x="52" y="-141"/>
      <point x="31" y="-141" type="curve" smooth="yes"/>
      <point x="-13" y="-141"/>
      <point x="-40" y="-113"/>
      <point x="-42" y="-110" type="curve"/>
      <point x="-62" y="-170" type="line"/>
      <point x="-30" y="-189"/>
      <point x="10" y="-204"/>
      <point x="56" y="-204" type="curve" smooth="yes"/>
      <point x="119" y="-204"/>
      <point x="179" y="-152"/>
      <point x="179" y="-59" type="curve" smooth="yes"/>
    </contour>
  </outline>
</glyph>
<glyph name="ff" format="2">
  <advance width="571"/>
  <outline>
    <contour>
      <point x="173" y="386" type="line"/>
      <point x="281" y="386" type="line"/>
      <point x="281" y="444" type="line"/>
      <point x="171" y="444" type="line"/>
      <point x="171" y="564" type="line" smooth="yes"/>
      <point x="171" y="634"/>
      <point x="232" y="644"/>
      <point x="261" y="644" type="curve" smooth="yes"/>
      <point x="297" y="644"/>
      <point x="327" y="633"/>
      <point x="340" y="628" type="curve"/>
      <point x="340" y="694" type="line"/>
      <point x="328" y="697"/>
      <point x="297" y="704"/>
      <point x="262" y="704" type="curve" smooth="yes"/>
      <point x="171" y="704"/>
      <point x="99" y="635"/>
      <point x="99" y="534" type="curve" smooth="yes"/>
      <point x="99" y="444" type="line"/>
      <point x="26" y="444" type="line"/>
      <point x="26" y="386" type="line"/>
      <point x="99" y="386" type="line"/>
      <point x="99" y="0" type="line"/>
      <point x="173" y="0" type="line"/>
    </contour>
    <contour>
      <point x="444" y="386" type="line"/>
      <point x="552" y="386" type="line"/>
      <point x="552" y="444" type="line"/>
      <point x="442" y="444" type="line"/>
      <point x="442" y="564" type="line" smooth="yes"/>
      <point x="442" y="634"/>
      <point x="503" y="644"/>
      <point x="532" y="644" type="curve" smooth="yes"/>
      <point x="568" y="644"/>
      <point x="598" y="633"/>
      <point x="611" y="628" type="curve"/>
      <point x="611" y="694" type="line"/>
      <point x="599" y="697"/>
      <point x="568" y="704"/>
      <point x="533" y="704" type="curve" smooth="yes"/>
      <point x="442" y="704"/>
      <point x="370" y="635"/>
      <point x="370" y="534" type="curve" smooth="yes"/>
      <point x="370" y="0" type="line"/>
      <point x="444" y="0" type="line"/>
    </contour>
  </outline>
</glyph>
<glyph name="ffl" format="2">
  <advance width="795"/>
  <outline>
    <contour>
      <point x="173" y="386" type="line"/>
      <point x="288" y="386" type="line"/>
      <point x="288" y="444" type="line"/>
      <point x="171" y="444" type="line"/>
      <point x="171" y="564" type="line" smooth="yes"/>
      <point x="171" y="633"/>
      <point x="219" y="644"/>
      <point x="245" y="644" type="curve" smooth="yes"/>
      <point x="281" y="644"/>
      <point x="312" y="628"/>
      <point x="313" y="628" type="curve"/>
      <point x="313" y="694" type="line"/>
      <point x="304" y="697"/>
      <point x="276" y="704"/>
      <point x="246" y="704" type="curve" smooth="yes"/>
      <point x="160" y="704"/>
      <point x="99" y="630"/>
      <point x="99" y="535" type="curve" smooth="yes"/>
      <point x="99" y="444" type="line"/>
      <point x="26" y="444" type="line"/>
      <point x="26" y="386" type="line"/>
      <point x="99" y="386" type="line"/>
      <point x="99" y="0" type="line"/>
      <point x="173" y="0" type="line"/>
    </contour>
    <contour>
      <point x="716" y="694" type="line"/>
      <point x="642" y="694" type="line"/>
      <point x="642" y="0" type="line"/>
      <point x="716" y="0" type="line"/>
    </contour>
    <contour>
      <point x="445" y="386" type="line"/>
      <point x="560" y="386" type="line"/>
      <point x="560" y="444" type="line"/>
      <point x="443" y="444" type="line"/>
      <point x="443" y="566" type="line" smooth="yes"/>
      <point x="443" y="626"/>
      <point x="475" y="644"/>
      <point x="502" y="644" type="curve" smooth="yes"/>
      <point x="522" y="644"/>
      <point x="543" y="639"/>
      <point x="560" y="628" type="curve"/>
      <point x="560" y="694" type="line"/>
      <point x="540" y="702"/>
      <point x="533" y="704"/>
      <point x="502" y="704" type="curve" smooth="yes"/>
      <point x="428" y="704"/>
      <point x="371" y="633"/>
      <point x="371" y="536" type="curve" smooth="yes"/>
      <point x="371" y="0" type="line"/>
      <point x="445" y="0" type="line"/>
    </contour>
  </outline>
</glyph>
<glyph name="fi" format="2">
  <advance width="523"/>
  <outline>
    <contour>
      <point x="447" y="695" type="line"/>
      <point x="366" y="695" type="line"/>
      <point x="366" y="614" type="line"/>
      <point x="447" y="614" type="line"/>
    </contour>
    <contour>
      <point x="444" y="444" type="line"/>
      <point x="370" y="444" type="line"/>
      <point x="370" y="0" type="line"/>
      <point x="444" y="0" type="line"/>
    </contour>
    <contour>
      <point x="173" y="386" type="line"/>
      <point x="288" y="386" type="line"/>
      <point x="288" y="444" type="line"/>
      <point x="171" y="444" type="line"/>
      <point x="171" y="566" type="line" smooth="yes"/>
      <point x="171" y="626"/>
      <point x="203" y="644"/>
      <point x="230" y="644" type="curve" smooth="yes"/>
      <point x="252" y="644"/>
      <point x="274" y="636"/>
      <point x="288" y="626" type="curve"/>
      <point x="288" y="694" type="line"/>
      <point x="268" y="702"/>
      <point x="261" y="704"/>
      <point x="230" y="704" type="curve" smooth="yes"/>
      <point x="156" y="704"/>
      <point x="99" y="633"/>
      <point x="99" y="536" type="curve" smooth="yes"/>
      <point x="99" y="444" type="line"/>
      <point x="26" y="444" type="line"/>
      <point x="26" y="386" type="line"/>
      <point x="99" y="386" type="line"/>
      <point x="99" y="0" type="line"/>
      <point x="173" y="0" type="line"/>
    </contour>
  </outline>
</glyph>
<glyph name="fl" format="2">
  <advance width="523"/>
  <outline>
    <contour>
      <point x="173" y="386" type="line"/>
      <point x="288" y="386" type="line"/>
      <point x="288" y="444" type="line"/>
      <point x="171" y="444" type="line"/>
      <point x="171" y="566" type="line" smooth="yes"/>
      <point x="171" y="626"/>
      <point x="203" y="644"/>
      <point x="230" y="644" type="curve" smooth="yes"/>
      <point x="250" y="644"/>
      <point x="271" y="639"/>
      <point x="288" y="628" type="curve"/>
      <point x="288" y="694" type="line"/>
      <point x="268" y="702"/>
      <point x="261" y="704"/>
      <point x="230" y="704" type="curve" smooth="yes"/>
      <point x="156" y="704"/>
      <point x="99" y="633"/>
      <point x="99" y="536" type="curve" smooth="yes"/>
      <point x="99" y="444" type="line"/>
      <point x="26" y="444" type="line"/>
      <point x="26" y="386" type="line"/>
      <point x="99" y="386" type="line"/>
      <point x="99" y="0" type="line"/>
      <point x="173" y="0" type="line"/>
    </contour>
    <contour>
      <point x="444" y="694" type="line"/>
      <point x="370" y="694" type="line"/>
      <point x="370" y="0" type="line"/>
      <point x="444" y="0" type="line"/>
    </contour>
  </outline>
</glyph>
<glyph name="sfthyphen" format="2">
  <advance width="163"/>
  <outline>
    <contour>
      <point x="271" y="193" type="line"/>
      <point x="271" y="251" type="line"/>
      <point x="11" y="251" type="line"/>
      <point x="11" y="193" type="line"/>
    </contour>
  </outline>
</glyph>
<glyph name="suppress" format="2">
  <advance width="230"/>
  <outline>
    <contour>
      <point x="238" y="344" type="line"/>
      <point x="220" y="399" type="line"/>
      <point x="-8" y="325" type="line"/>
      <point x="9" y="270" type="line"/>
    </contour>
  </outline>
</glyph>
